<svg xmlns="http://www.w3.org/2000/svg" width="32" height="32" viewBox="0 0 32 32"><g transform="translate(0 -1020.362)"><path fill="#25b39e" d="M6 1041.3622l3 0 0 7.9999-3 0zM12 1038.3622l3 0 0 11-3 0zM18 1031.3622l3 0 0 17.9999-3 0zM24 1037.3622l3 0 0 11.9999-3 0z" color="#000" overflow="visible" style="isolation:auto;mix-blend-mode:normal"/><path fill="#576d7e" fill-rule="evenodd" d="m 2,1022.3613 0,28 1,0 0,-28 -1,0 z" color="#000" font-family="sans-serif" font-weight="400" overflow="visible" style="line-height:normal;text-indent:0;text-align:start;text-decoration-line:none;text-decoration-style:solid;text-decoration-color:#000;text-transform:none;block-progression:tb;isolation:auto;mix-blend-mode:normal"/><path fill="#576d7e" fill-rule="evenodd" d="m 2,1049.3613 0,1 28,0 0,-1 -28,0 z" color="#000" font-family="sans-serif" font-weight="400" overflow="visible" style="line-height:normal;text-indent:0;text-align:start;text-decoration-line:none;text-decoration-style:solid;text-decoration-color:#000;text-transform:none;block-progression:tb;isolation:auto;mix-blend-mode:normal"/><path fill="#f8b84e" d="m 8.48757,1024.8625 c -1.94937,0 -3.48757,1.5527 -3.48757,3.4988 0,1.9473 1.53817,3.5 3.48757,3.5 1.94857,0 3.51243,-1.5596 3.51243,-3.5 0,-1.9392 -1.56389,-3.4988 -3.51243,-3.4988 z"/><path fill="#34485c" fill-rule="evenodd" d="m 6.0039062,1024.3711 0,1 1.0273438,0 c 1.2074021,0 1.65625,0.7377 1.65625,1.4922 0,0.7545 -0.4488479,1.4902 -1.65625,1.4902 l -1.0273438,0 0,1 1.0273438,0 c 1.6688079,0 2.65625,-1.2541 2.65625,-2.4902 0,-1.2362 -0.9874421,-2.4922 -2.65625,-2.4922 l -1.0273438,0 z" color="#000" font-family="sans-serif" font-weight="400" overflow="visible" style="line-height:normal;text-indent:0;text-align:start;text-decoration-line:none;text-decoration-style:solid;text-decoration-color:#000;text-transform:none;block-progression:tb;isolation:auto;mix-blend-mode:normal"/><path fill="#34485c" fill-rule="evenodd" style="line-height:normal;text-indent:0;text-align:start;text-decoration-line:none;text-decoration-style:solid;text-decoration-color:#000;text-transform:none;block-progression:tb;isolation:auto;mix-blend-mode:normal" d="M6.02682 1026.3625l0 1 4.96906 0 0-1-4.96906 0zM6.02682 1024.3625l0 1 4.96906 0 0-1-4.96906 0zM6.7070312 1028.3496l-.703125.7129 3.3457032 3.2988.7031246-.7109-3.3457028-3.3008z" color="#000" font-family="sans-serif" font-weight="400" overflow="visible"/><path fill="#f05542" d="M6 1044.3622l3 0 0 5-3 0zM12 1040.3622l3 0 0 9-3 0zM18 1036.3622l3 0 0 13-3 0zM24 1038.3622l3 0 0 11-3 0z" color="#000" overflow="visible" style="isolation:auto;mix-blend-mode:normal"/></g></svg>