<svg xmlns="http://www.w3.org/2000/svg" viewBox="0 0 64 64"><g data-name="shop"><path fill="#e0e0e2" d="M7 15h50v42H7z"/><path fill="#898890" d="M57 22.87v1a3.657 3.657 0 01-1 .13 4 4 0 01-4-4 4 4 0 01-8 0 4 4 0 01-8 0 4 4 0 01-8 0 4 4 0 01-8 0 4 4 0 01-8 0 4 4 0 01-4 4 3.657 3.657 0 01-1-.13v-1A3.657 3.657 0 008 23a4 4 0 004-4 4 4 0 008 0 4 4 0 008 0 4 4 0 008 0 4 4 0 008 0 4 4 0 008 0 4 4 0 004 4 3.657 3.657 0 001-.13z"/><path fill="#00d7df" d="M15 37h15v20H15z"/><path fill="#787680" d="M36 28h16v14H36z"/><path fill="#bdfdff" d="M15 43h15v6H15z"/><path fill="#3e3d42" d="M3 57h58v4H3z"/><path fill="#ff5023" d="M60 11v8a3.992 3.992 0 01-3 3.87 3.657 3.657 0 01-1 .13 4 4 0 01-4-4v-8z"/><path fill="#ff7956" d="M60 11H4l2-8h52l2 8z"/><path fill="#ffda44" d="M52 28v2a2 2 0 01-4 0v-2z"/><path fill="#ff9811" d="M52 11v8a4 4 0 01-8 0v-8zm-4 17v2a2 2 0 01-4 0v-2z"/><path fill="#ffda44" d="M44 28v2a2 2 0 01-4 0v-2z"/><path fill="#ff5023" d="M44 11v8a4 4 0 01-8 0v-8z"/><path fill="#ff9811" d="M40 28v2a2 2 0 01-4 0v-2zm-4-17v8a4 4 0 01-8 0v-8z"/><path fill="#ff5023" d="M28 11v8a4 4 0 01-8 0v-8z"/><path fill="#ff9811" d="M20 11v8a4 4 0 01-8 0v-8z"/><path fill="#ff5023" d="M12 11v8a4 4 0 01-4 4 3.657 3.657 0 01-1-.13A3.992 3.992 0 014 19v-8z"/><path fill="#231f20" d="M17.74 45h2v2h-2z"/><path fill="#004fac" d="M34 41h20v2H34zM34 27h20v2H34z"/><path fill="#fff" d="M16 38h1v3h-1z"/><rect width="10" height="3" x="8" y="4" fill="#ffe682" rx="1.5"/><rect width="2" height="5" x="5" y="12" fill="#ff7754" rx="1"/></g></svg>