<svg xmlns="http://www.w3.org/2000/svg" viewBox="0 0 64 64"><path fill="#ffb1b5" d="M59,61H50a2,2,0,0,1-2-2V55l13-.25V59A2,2,0,0,1,59,61Z"/><path fill="#64a8b2" d="M14,48h0a2,2,0,0,1-2-2V37h4v9A2,2,0,0,1,14,48Z"/><rect width="10" height="12" x="9" y="26" fill="#69b0bb"/><path fill="#ebebeb" d="M9 37H7a4 4 0 0 1-4-4V31a4 4 0 0 1 4-4H9zM33 42H29l-1.709-1.281a17.633 17.633 0 0 0-5.008-2.625L19 37V27l.421-.07A17.653 17.653 0 0 0 29 22h4z"/><rect width="4" height="26" x="29" y="19" fill="#69b0bb" rx="2" ry="2"/><circle cx="54" cy="10" r="7" fill="#fbedbf"/><circle cx="53" cy="32" r="8" fill="#c0f5f9"/><path fill="#69b0bb" d="M58,9V8.5a2.5,2.5,0,0,0-5,0V10H51v2h2v2h2V12h2V10H55V8.5a.5.5,0,0,1,1,0V9Z"/><path fill="#ebebeb" d="M50,49h9a2,2,0,0,1,2,2v4a0,0,0,0,1,0,0H48a0,0,0,0,1,0,0V51A2,2,0,0,1,50,49Z"/><rect width="2" height="2" x="36" y="31" fill="#ffb1b5"/><rect width="2" height="2" x="40" y="31" fill="#ffb1b5"/><path fill="#ffb1b5" d="M39.289 22.118l.893 1.789c.628-.313 1.248-.663 1.844-1.039l-1.069-1.691A19.146 19.146 0 0 1 39.289 22.118zM35.712 23.475l.518 1.932c.682-.183 1.359-.4 2.014-.65l-.709-1.87C36.942 23.111 36.329 23.31 35.712 23.475zM45.354 20.26l-1.386-1.442a19.006 19.006 0 0 1-1.446 1.255l1.234 1.574A20.89 20.89 0 0 0 45.354 20.26zM48.011 17.156l.077-.11L46.452 15.9l-.078.111c-.342.487-.709.964-1.093 1.415l1.523 1.3C47.229 18.22 47.635 17.694 48.011 17.156zM35.712 40.525c.617.165 1.23.364 1.823.588l.709-1.87c-.655-.248-1.332-.467-2.014-.65zM39.289 41.882a19.146 19.146 0 0 1 1.668.941l1.069-1.691c-.6-.376-1.216-.726-1.844-1.039zM43.756 42.353l-1.234 1.574a19.006 19.006 0 0 1 1.446 1.255l1.386-1.442A20.89 20.89 0 0 0 43.756 42.353zM46.8 45.281l-1.523 1.3c.384.451.751.928 1.094 1.416l.077.11 1.636-1.149-.076-.109C47.635 46.306 47.229 45.78 46.8 45.281z"/><rect width="2" height="2" x="12.75" y="29" fill="#f7ba61"/><rect width="2" height="2" x="12.75" y="33" fill="#aae5c8"/><path fill="#69b0bb" d="M54.5,29A1.5,1.5,0,0,0,53,30.5v.882a1,1,0,0,1-1.447.894L49,31l.457,1.828a4.078,4.078,0,0,0,2.667,2.88h0a2.764,2.764,0,0,0,1.752,0l.227-.076A2.774,2.774,0,0,0,56,33h0V30.5A1.5,1.5,0,0,0,54.5,29Z"/><polygon fill="#69b0bb" points="57.167 30.833 55.917 31.5 55.583 29.667 57.167 30.833"/><circle cx="54.5" cy="55" r="3" fill="#dbdbdb"/><circle cx="54.5" cy="55" r="2" fill="#eaeae8"/><rect width="4" height="2" x="12" y="38" fill="#5d9aa4"/></svg>