<svg xmlns="http://www.w3.org/2000/svg" data-name="Layer 1" viewBox="0 0 64 64"><defs><linearGradient id="a" x2="64" y1="32" y2="32" gradientUnits="userSpaceOnUse"><stop offset=".15" stop-color="#ea5972"/><stop offset=".61" stop-color="#cc253d"/></linearGradient></defs><circle cx="32" cy="32" r="32" fill="url(#a)"/><path fill="#fff" d="M45.67 17.35c-5.68 0-10.28 3.94-10.28 8.8a8.06 8.06 0 0 0 2.25 5.51L37 35.59 41 34a11.39 11.39 0 0 0 4.64 1C51.35 35 56 31 56 26.15S51.35 17.35 45.67 17.35zm0 13.46a4.67 4.67 0 1 1 4.67-4.66A4.66 4.66 0 0 1 45.67 30.81zM23 43.19l4.08 1.58-.7-3.93a8 8 0 0 0 2.26-5.5c0-4.86-4.6-8.81-10.28-8.81S8.05 30.48 8.05 35.34s4.6 8.8 10.28 8.8A11.59 11.59 0 0 0 23 43.19zm.63-9.07a1.22 1.22 0 1 1-1.21 1.21A1.22 1.22 0 0 1 23.6 34.12zM13.05 36.55a1.22 1.22 0 0 1 0-2.43 1.22 1.22 0 1 1 0 2.43zm4.06-1.22a1.22 1.22 0 1 1 1.22 1.22A1.22 1.22 0 0 1 17.11 35.33z"/><path fill="#fff" d="M46.85 26.16a1.19 1.19 0 0 0-.38-.25l-.41-.17-.39-.14a1.35 1.35 0 0 1-.32-.15.61.61 0 0 1-.2-.19.46.46 0 0 1-.07-.25.58.58 0 0 1 0-.19.31.31 0 0 1 .1-.13.51.51 0 0 1 .21-.09 1.16 1.16 0 0 1 .35 0 1.12 1.12 0 0 1 .32 0l.27.08.19.09a.32.32 0 0 0 .19.06.18.18 0 0 0 .13 0l.06-.07 0 0s0-.06 0-.11 0-.08 0-.13 0-.07 0-.11l0-.09a.13.13 0 0 0 0-.08l0-.08 0 0L46.72 24l-.19-.08a.86.86 0 0 0-.23-.06l-.08 0 .06-.55a.25.25 0 0 0 0-.09l-.05-.09 0 0A.25.25 0 0 0 46 23h-.27l-.1 0h0a.24.24 0 0 0-.09.11l0 .06-.06.58a2.16 2.16 0 0 0-.47.11 1.48 1.48 0 0 0-.44.27 1.09 1.09 0 0 0-.27.4 1.28 1.28 0 0 0-.09.48 1.27 1.27 0 0 0 .11.54 1.31 1.31 0 0 0 .27.38 1.92 1.92 0 0 0 .38.25l.4.17.39.14a1.28 1.28 0 0 1 .31.15.53.53 0 0 1 .2.19.37.37 0 0 1 .07.25.45.45 0 0 1-.19.39 1 1 0 0 1-.64.16 1.85 1.85 0 0 1-.43 0 2.45 2.45 0 0 1-.3-.11 1.23 1.23 0 0 1-.2-.1.48.48 0 0 0-.2-.07.21.21 0 0 0-.12 0l-.09.07 0 .05 0 .12s0 .09 0 .14a1 1 0 0 0 0 .2.42.42 0 0 0 .09.16.44.44 0 0 0 .15.1l.2.09.27.08.17 0-.06.57a.23.23 0 0 0 0 .14l.06.09.05 0a.18.18 0 0 0 .11 0l.15 0h.13l.09 0h0a.17.17 0 0 0 .1-.1l0-.06.07-.63a2.5 2.5 0 0 0 .52-.11 1.63 1.63 0 0 0 .52-.29 1.27 1.27 0 0 0 .45-1 1.31 1.31 0 0 0-.11-.55A1.17 1.17 0 0 0 46.85 26.16zM44.45 35.64V46.4a1.69 1.69 0 0 1-1.68 1.69H21.23a1.68 1.68 0 0 1-1.68-1.66v-1.6c-.4 0-.81.05-1.22.05H18V46h0v5.46A3.55 3.55 0 0 0 21.57 55H42.44A3.55 3.55 0 0 0 46 51.44V35.69h-.31C45.26 35.7 44.85 35.68 44.45 35.64zM32 52.88a1.34 1.34 0 1 1 1.34-1.34A1.34 1.34 0 0 1 32 52.88zM18 25.79h.31a12.12 12.12 0 0 1 1.22.07V16.92a1.68 1.68 0 0 1 1.68-1.66H42.77a1.69 1.69 0 0 1 1.66 1.41 10.08 10.08 0 0 1 1.24-.07H46v-4A3.55 3.55 0 0 0 42.44 9H21.57A3.55 3.55 0 0 0 18 12.56v4.21h0v9zm12.75-14h4.28a.34.34 0 0 1 .34.34.35.35 0 0 1-.34.35H30.77a.35.35 0 0 1-.34-.35A.34.34 0 0 1 30.77 11.8zM29 11.8a.35.35 0 0 1 .36.34.36.36 0 0 1-.36.35.35.35 0 0 1-.34-.35A.34.34 0 0 1 29 11.8z"/></svg>