<?xml version="1.0" encoding="utf-8"?>
<svg fill-rule="evenodd" stroke-linejoin="round" stroke-miterlimit="2" clip-rule="evenodd" viewBox="0.521 0.223 31.659 31.591" xmlns="http://www.w3.org/2000/svg">
  <g transform="translate(.14)">
    <rect width="32" height="32" fill="none"/>
    <path fill="#1e9afe" d="M 31.261 8.462 C 31.261 4.323 27.901 0.962 23.761 0.962 L 8.761 0.962 C 4.622 0.962 1.261 4.323 1.261 8.462 L 1.261 23.463 C 1.261 27.602 4.622 30.962 8.761 30.962 L 23.761 30.962 C 27.901 30.962 31.261 27.602 31.261 23.463 L 31.261 8.462 Z"/>
    <circle cx="16.261" cy="16" r="9.021" fill="#fcfcfc"/>
    <path fill="#46ba4f" d="M 7.862 15.739 L 14.344 21.742 C 15.166 22.503 16.441 22.477 17.233 21.686 L 27.212 11.707 C 28.025 10.894 28.025 9.574 27.212 8.761 C 26.399 7.947 25.079 7.947 24.265 8.761 L 15.705 17.322 C 15.705 17.322 10.693 12.682 10.693 12.682 C 9.848 11.901 8.53 11.952 7.749 12.795 C 6.967 13.639 7.018 14.958 7.862 15.739 Z"/>
  </g>
</svg>