<svg xmlns="http://www.w3.org/2000/svg" enable-background="new 0 0 64 64" viewBox="0 0 64 64"><path fill="#4b4c4f" d="M0.06,45.29L9.99,5.31c0.28-1.14,1.44-1.84,2.59-1.56l49.8,12.37c1.14,0.28,1.84,1.44,1.56,2.59l-9.93,39.98
		c-0.28,1.14-1.44,1.84-2.59,1.56L1.62,47.88C0.48,47.59-0.22,46.44,0.06,45.29z"/><path fill="#ddd" d="M0,47.02V5.83c0-1.18,0.96-2.13,2.13-2.13h51.31c1.18,0,2.13,0.96,2.13,2.13v41.19
		c0,1.18-0.96,2.13-2.13,2.13H2.13C0.96,49.15,0,48.2,0,47.02z"/><path fill="#67caf3" d="M2.9,6.6v39.65h49.78V6.6H2.9z"/><path fill="#f6c240" d="M15.22,14.88c0,2.33-1.89,4.24-4.23,4.24c-2.34,0-4.24-1.9-4.24-4.24c0-2.33,1.89-4.24,4.24-4.24
		C13.32,10.64,15.22,12.55,15.22,14.88z"/><rect width="28.61" height="17.64" x="20.63" y="25.72" fill="#e5e8e8"/><path fill="#ff997f" d="M33.09,43.36h-9.13v-8.9c0-2.52,2.04-4.57,4.57-4.57l0,0c2.52,0,4.57,2.04,4.57,4.57V43.36z"/><path fill="#ccc" d="M37.36,29.89v8.54h8.54v-8.54H37.36z M41.33,37.84h-3.38v-3.38h3.38V37.84z M41.33,33.86h-3.38v-3.38
							h3.38V33.86z M45.31,37.84h-3.39v-3.38h3.39V37.84z M45.31,33.86h-3.39v-3.38h3.39V33.86z"/><rect width="3.39" height="3.38" x="41.92" y="34.46" fill="#4ca4cf"/><rect width="3.38" height="3.38" x="37.95" y="34.46" fill="#4ca4cf"/><rect width="3.38" height="3.38" x="37.95" y="30.48" fill="#4ca4cf"/><rect width="3.39" height="3.38" x="41.92" y="30.48" fill="#4ca4cf"/><rect width="3.75" height="7.56" x="22.05" y="14.88" fill="#e5e8e8"/><rect width="5.56" height="1.75" x="21.15" y="13.13" fill="#ccc"/><polygon fill="#2578c0" points="34.93 10.75 17.18 25.72 52.68 25.72"/><path fill="#e5e8e8" d="M37.6,18.23c0,1.47-1.19,2.67-2.67,2.67c-1.47,0-2.67-1.19-2.67-2.67c0-1.47,1.19-2.67,2.67-2.67
						C36.4,15.57,37.6,16.76,37.6,18.23z"/><path fill="#2578c0" d="M36.87,18.23c0,1.07-0.87,1.95-1.95,1.95c-1.07,0-1.95-0.87-1.95-1.95c0-1.07,0.87-1.95,1.95-1.95
						C36,16.29,36.87,17.16,36.87,18.23z"/><path fill="#89bf95" d="M52.68,33.82v12.43H28.1c1.1-1.89,2.58-3.49,4.28-4.86c0.9-0.72,1.85-1.37,2.85-1.97
		c0.16-0.1,0.34-0.2,0.51-0.3c1.92-1.1,3.98-1.99,6.01-2.71c0.01,0,0.02-0.01,0.02-0.01c2.27-0.8,4.52-1.38,6.53-1.82
		C49.96,34.23,51.46,33.98,52.68,33.82z"/><path fill="#6e9977" d="M32.39,41.39c-1.7,1.37-3.19,2.97-4.28,4.86H2.9V31.7c3.74,0.16,10.3,0.78,16.92,2.95
		C24.25,36.09,28.71,38.23,32.39,41.39z"/></svg>