<svg id="SvgjsSvg1031" width="288" height="288" xmlns="http://www.w3.org/2000/svg" version="1.1" xmlns:xlink="http://www.w3.org/1999/xlink" xmlns:svgjs="http://svgjs.com/svgjs"><defs id="SvgjsDefs1032"></defs><g id="SvgjsG1033" transform="matrix(1,0,0,1,0,0)"><svg xmlns="http://www.w3.org/2000/svg" viewBox="0 0 64 64" width="288" height="288"><g data-name="id card-passport-badge" fill="#000000" class="color000 svgShape"><rect width="56" height="36" x="4" y="14" fill="#57beff" rx="2" class="color57a4ff svgShape"></rect><rect width="16" height="16" x="8" y="22" fill="#fc5c9c" class="colorff7956 svgShape"></rect><path fill="#fccde2" d="M23,38H9a7,7,0,0,1,14,0Z" class="colorffeb99 svgShape"></path><circle cx="16" cy="28" r="3" fill="#fccde2" class="colorffeb99 svgShape"></circle><path fill="#c5e3f6" d="M27,3V18H37V3Zm5,7a2,2,0,1,1,2-2A2.006,2.006,0,0,1,32,10Z" class="colore0e0e2 svgShape"></path><circle cx="48" cy="48" r="13" fill="#0093f0" class="color00e7f0 svgShape"></circle><rect width="4" height="2" x="30" y="13" fill="#24aaff" class="color2488ff svgShape"></rect><path fill="#fcefee" d="M45,52.586l-4.293-4.293-1.414,1.414,5,5a1,1,0,0,0,1.414,0l11-11-1.414-1.414Z" class="colorfff svgShape"></path><rect width="30" height="2" x="27" y="22" fill="#fcefee" class="colorfff svgShape"></rect><rect width="30" height="2" x="27" y="27" fill="#fcefee" class="colorfff svgShape"></rect><rect width="10" height="2" x="27" y="32" fill="#fcefee" class="colorfff svgShape"></rect><rect width="10" height="1" x="28" y="18" fill="#007ece" class="color005ece svgShape"></rect><rect width="1" height="5" x="37" y="14" fill="#007ece" class="color005ece svgShape"></rect></g></svg></g></svg>