<svg xmlns="http://www.w3.org/2000/svg" enable-background="new 0 0 50 50" viewBox="0 0 50 50"><rect width="2.827" height="9.913" x="23.586" y="27.539" fill="#D2D2D2"/><path fill="#D2D2D2" d="M9.20171,40.53213L9.20171,40.53213c0-0.78068,0.63286-1.41354,1.41354-1.41354h28.76944
		c0.78067,0,1.41354,0.63286,1.41354,1.41354v0c0,0.78068-0.63287,1.41354-1.41354,1.41354l-28.76944,0
		C9.83457,41.94567,9.20171,41.3128,9.20171,40.53213z"/><circle cx="25" cy="40.532" r="5.027" fill="#656766"/><circle cx="25" cy="40.532" r="2.552" fill="#D2D2D2"/><path fill="#53B1E2" d="M48.47541,17.25182h-3.20575c-0.28994,0-0.52456,0.23462-0.52456,0.52456
				s0.23462,0.52456,0.52456,0.52456h3.20575c0.28994,0,0.52456-0.23462,0.52456-0.52456S48.76535,17.25182,48.47541,17.25182z"/><path fill="#85BD57" d="M43.66729,15.24733c0.09119,0,0.18339-0.02356,0.2674-0.07325l3.20576-1.90306
				c0.24896-0.14804,0.33092-0.46975,0.18339-0.71922c-0.14804-0.24896-0.47026-0.33195-0.71922-0.18339l-3.20575,1.90306
				c-0.24896,0.14804-0.33092,0.46975-0.18339,0.71922C43.31383,15.15563,43.488,15.24733,43.66729,15.24733z"/><path fill="#FFC966" d="M47.14045,22.28175l-3.20576-1.90255c-0.24896-0.14804-0.57066-0.06557-0.71922,0.18339
				c-0.14753,0.24947-0.06557,0.57118,0.18339,0.71922l3.20575,1.90255c0.08401,0.04969,0.17622,0.07325,0.2674,0.07325
				c0.17929,0,0.35346-0.09169,0.45182-0.25664C47.47137,22.7515,47.38941,22.4298,47.14045,22.28175z"/><path fill="#53B1E2" d="M1.52453,18.30038h3.20576c0.28994,0,0.52456-0.23462,0.52456-0.52456
				c0-0.28994-0.23462-0.52456-0.52456-0.52456l-3.20576,0c-0.28994,0-0.52456,0.23462-0.52456,0.52456
				C0.99997,18.06576,1.23459,18.30038,1.52453,18.30038z"/><path fill="#85BD57" d="M6.33265,20.30487c-0.09118,0-0.18339,0.02356-0.2674,0.07325L2.8595,22.28119
				c-0.24896,0.14804-0.33092,0.46975-0.18339,0.71922c0.14804,0.24896,0.47026,0.33195,0.71922,0.18339l3.20576-1.90307
				c0.24896-0.14804,0.33092-0.46975,0.18339-0.71922C6.68612,20.39657,6.51195,20.30487,6.33265,20.30487z"/><path fill="#FFC966" d="M2.85949,13.27045L6.06525,15.173c0.24896,0.14804,0.57066,0.06557,0.71922-0.18339
				c0.14753-0.24947,0.06557-0.57118-0.18339-0.71922l-3.20576-1.90255c-0.08401-0.04969-0.17622-0.07325-0.2674-0.07325
				c-0.17929,0-0.35346,0.0917-0.45182,0.25665C2.52857,12.8007,2.61053,13.1224,2.85949,13.27045z"/><g><rect width="23.264" height="15.057" x="13.368" y="10.248" fill="#4E4C4D"/><path fill="#656766" d="M36.75035 19.49763H13.24959c-2.31876 0-4.19849 1.87973-4.19849 4.19849v3.21662c0 2.31876 1.87973 4.19849 4.19849 4.19849h23.50075c2.31876 0 4.19849-1.87973 4.19849-4.19849v-3.21662C40.94884 21.37735 39.06911 19.49763 36.75035 19.49763zM36.75035 4.44097H13.24959c-2.31876 0-4.19849 1.87973-4.19849 4.19849v3.21662c0 2.31876 1.87973 4.19849 4.19849 4.19849h23.50075c2.31876 0 4.19849-1.87973 4.19849-4.19849V8.63946C40.94884 6.3207 39.06911 4.44097 36.75035 4.44097z"/><circle cx="15.237" cy="10.248" r="2.235" fill="#EC6E62"/><circle cx="21.589" cy="10.248" r="2.235" fill="#85BD57"/><circle cx="15.237" cy="25.304" r="2.235" fill="#EC6E62"/><circle cx="21.589" cy="25.304" r="2.235" fill="#85BD57"/></g></svg>