<?xml version="1.0" encoding="utf-8"?>
<svg viewBox="243.463 209.303 41.675 27.094" xmlns="http://www.w3.org/2000/svg">
  <g transform="matrix(1.486984, 0, 0, 1.405431, 274.315918, -1196.005615)" style="">
    <g transform="matrix(0.916637, 0, 0, 1.000001, -199.218948, -1383.317627)" style="">
      <g transform="matrix(.9375 0 0 .95 12.188 155.28)">
        <rect width="32" height="20" x="195" y="2345.362" fill="#fcd062" rx="1" ry="1"/>
        <path fill="#f9b945" fill-opacity=".341" d="m 195,2347.0343 0,-0.5794 1,-1.0927 30,0 1,1.0927 0,0.5794 -15.39784,12.0611 c -0.37682,0.3605 -0.7505,0.3556 -1.22266,-0.014 z"/>
        <path fill="#f8b740" d="m 196,1325 c -0.55228,0 -1,0.4477 -1,1 l 0,0.5312 0.28125,0.1876 15.09375,10.8437 c 0.47216,0.3384 0.84193,0.3299 1.21875,0 L 227,1326.5312 227,1326 c 0,-0.5523 -0.44772,-1 -1,-1 l -30,0 z" transform="translate(0 1020.362)"/>
      </g>
      <g transform="translate(393 368)"/>
    </g>
    <circle cx="24" cy="17" r="9" transform="matrix(0.672502, 0, 0, 0.711525, -22.240294, 997.735962)" style="fill: rgb(57, 220, 63);"/>
    <path d="M -6.951 1012.251 C -7.145 1012.251 -7.331 1012.17 -7.47 1012.027 L -8.934 1010.495 C -9.325 1010.072 -9.131 1009.363 -8.585 1009.221 C -8.339 1009.156 -8.079 1009.23 -7.899 1009.412 L -6.951 1010.402 L -3.808 1007.116 C -3.403 1006.706 -2.726 1006.91 -2.589 1007.481 C -2.528 1007.738 -2.597 1008.008 -2.773 1008.199 L -6.434 1012.027 C -6.572 1012.17 -6.758 1012.251 -6.951 1012.251 Z" style="fill: rgb(255, 255, 255);"/>
  </g>
</svg>