<svg xmlns="http://www.w3.org/2000/svg" data-name="Layer 1" viewBox="0 0 512 512"><ellipse cx="168.77" cy="167.44" rx="8.85" ry="8.89"/><ellipse cx="404.42" cy="404.36" rx="8.85" ry="8.89"/><path fill="#138b4c" d="M328.16,494.57,78.85,243.91a35.72,35.72,0,0,1,0-50.32L194.58,77.23a35.25,35.25,0,0,1,50,0L493.93,327.9a35.71,35.71,0,0,1,0,50.31L378.2,494.57A35.25,35.25,0,0,1,328.16,494.57Z"/><path fill="#107f47" d="M194.58,77.23,175,96.88a35.24,35.24,0,0,1,48.37,1.57L472.72,349.11a35.71,35.71,0,0,1,0,50.31l-96.19,96.72c.57-.51,1.13-1,1.67-1.57L493.93,378.21a35.71,35.71,0,0,0,0-50.31L244.62,77.23A35.25,35.25,0,0,0,194.58,77.23Z"/><path fill="#19ac66" d="M303.14,469.41,103.87,269.06a71.41,71.41,0,0,0,0-100.62l65.69-66a70.49,70.49,0,0,0,100.08,0L468.91,302.74a71.43,71.43,0,0,0,0,100.63l-65.69,66A70.51,70.51,0,0,0,303.14,469.41Z"/><path fill="#17a454" d="M243.85,118.94,452.34,329a71,71,0,0,1,16.57-26.23L269.64,102.39a70.43,70.43,0,0,1-25.79,16.55Z"/><path fill="#fed947" d="M225.84,346.78a86.42,86.42,0,0,1,0-121.75,85.3,85.3,0,0,1,121.1,0,86.42,86.42,0,0,1,0,121.75,85.32,85.32,0,0,1-121.1,0Z"/><path fill="#fecc30" d="M286.39,199.81A84.8,84.8,0,0,0,225.84,225a86.63,86.63,0,0,0-8,9.28,85.34,85.34,0,0,1,111.43,8.39,86.46,86.46,0,0,1,8,112.47,88.86,88.86,0,0,0,9.67-8.39,86.42,86.42,0,0,0,0-121.75A84.82,84.82,0,0,0,286.39,199.81Z"/><path fill="#f8be32" d="M352.07,352.25a92.82,92.82,0,0,1-131.55-.18,93.93,93.93,0,0,1,0-132.33l.19-.19a92.79,92.79,0,0,1,131.54.19,93.9,93.9,0,0,1,0,132.33ZM231.31,230.16l-.15.15a78.92,78.92,0,0,0,0,111.18,77.8,77.8,0,0,0,110.3.15l.16-.15a78.92,78.92,0,0,0,0-111.18,77.81,77.81,0,0,0-110.31-.15Z"/><path fill="#fff" d="M315,290.62a32.34,32.34,0,0,1-45.85-.06l-14.59-14.67a7.5,7.5,0,0,1,0-10.59h0a7.5,7.5,0,0,1,10.61,0L279.78,280a17.35,17.35,0,0,0,24.61,0l0,0a17.7,17.7,0,0,0,0-24.89l-10.18-10.23a7.5,7.5,0,0,1,0-10.59l0,0a7.49,7.49,0,0,1,10.6,0l10.18,10.23a32.72,32.72,0,0,1,0,46.05Z"/><path fill="#fff" d="M342.18 282.39h0a7.5 7.5 0 0 1-10.61 0l-41.72-42a7.5 7.5 0 0 1 0-10.59h0a7.49 7.49 0 0 1 10.6 0l41.73 42A7.5 7.5 0 0 1 342.18 282.39zM324.55 300.12l0 0a7.5 7.5 0 0 1-10.61 0L272.2 258.16a7.5 7.5 0 0 1 0-10.59l0 0a7.5 7.5 0 0 1 10.61 0l41.72 41.95A7.5 7.5 0 0 1 324.55 300.12zM266.2 338.32a7.5 7.5 0 0 1-12.8-5.18l-1-62.41a7.5 7.5 0 1 1 15-.25l1 62.41A7.47 7.47 0 0 1 266.2 338.32z"/><ellipse cx="168.57" cy="167.44" fill="#f8be32" rx="8.85" ry="8.89"/><ellipse cx="404.21" cy="404.36" fill="#f8be32" rx="8.85" ry="8.89"/><path fill="#fed947" d="M434.5,166.34l50-50.32a35.71,35.71,0,0,0,0-50.31l-4.17-4.19L407.21,113.8"/><path fill="#fed947" d="M417.65,124.24l62.72-62.72a35.72,35.72,0,0,0,0-50.32L476.2,7,388.63,95.06c-13.84,13.7-19.46,27.22-22,35.84-11.05,37.82,7.81,82.88,47,115.1l62.55-62.89a35.72,35.72,0,0,0,0-50.32L472,128.6"/><path fill="#fecc30" d="M473.94 105.42L440 139.55a24.93 24.93 0 0 0-5.49 26.79h0l50-50.32a35.67 35.67 0 0 0 0-50.31l-4.17-4.19-.86.86A35.75 35.75 0 0 1 473.94 105.42zM465.74 172.56L431.79 206.7a24.93 24.93 0 0 0-5.49 26.79h0l50-50.32a35.67 35.67 0 0 0 0-50.31l-4.17-4.2-.86.87A35.72 35.72 0 0 1 465.74 172.56zM469.77 50.91L435.82 85a24.91 24.91 0 0 0-5.49 26.79h0l50-50.31a35.68 35.68 0 0 0 0-50.32L476.2 7l-.86.86A35.75 35.75 0 0 1 469.77 50.91z"/><path fill="#fed947" d="M167,433.8l-50.31,50a35.71,35.71,0,0,1-50.31,0l-4.2-4.17,52.29-73.15"/><path fill="#fed947" d="M124.94,417,62.21,479.67a35.71,35.71,0,0,1-50.31,0L7.71,475.5l88.05-87.57c13.7-13.84,27.21-19.46,35.84-22,37.82-11.06,82.87,7.8,115.1,47L183.81,475.5a35.72,35.72,0,0,1-50.32,0l-4.19-4.17"/><path fill="#fecc30" d="M106.11 473.24l34.14-33.95A24.92 24.92 0 0 1 167 433.8h0l-50.31 50a35.66 35.66 0 0 1-50.31 0l-4.2-4.18.87-.86A35.72 35.72 0 0 0 106.11 473.24zM173.26 465l34.14-34a24.91 24.91 0 0 1 26.78-5.49h0l-50.31 50a35.68 35.68 0 0 1-50.32 0l-4.19-4.17.87-.86A35.74 35.74 0 0 0 173.26 465z"/><path fill="#fecc30" d="M51.61,469.07l34.13-33.95a24.93,24.93,0,0,1,26.79-5.49h0l-50.32,50a35.65,35.65,0,0,1-50.31,0L7.71,475.5l.86-.86A35.73,35.73,0,0,0,51.61,469.07Z"/></svg>