<svg xmlns="http://www.w3.org/2000/svg" width="36" height="36"><g transform="translate(0 -1016.362)"><path fill="#406b95" d="M10.34 1039.862a.5.5 0 01-.5.5.5.5 0 01-.5-.5.5.5 0 01.5-.5.5.5 0 01.5.5z"/><path fill="#2dbca4" d="M33 1034.862a14.5 14.5 0 01-14.5 14.5 14.5 14.5 0 01-14.5-14.5 14.5 14.5 0 0114.5-14.5 14.5 14.5 0 0114.5 14.5z"/><circle cx="18.5" cy="1034.862" r="12.5" fill="#f0f4f7" stroke="#0c5286" stroke-dashoffset="3.4" stroke-linejoin="round"/><path fill="#406b95" fill-rule="evenodd" style="line-height:normal;text-indent:0;text-align:start;text-decoration-line:none;text-decoration-style:solid;text-decoration-color:#000;text-transform:none;block-progression:tb;isolation:auto;mix-blend-mode:normal" d="M18.492 1026.803a.5.5 0 00-.492.506v6.435a.5.5 0 101 0v-6.435a.5.5 0 00-.508-.506zm1.258 7.558a.5.5 0 100 1h4.5a.5.5 0 100-1h-4.5z" color="#000" font-family="sans-serif" font-weight="400" overflow="visible"/><path fill="#ee535c" fill-rule="evenodd" style="line-height:normal;text-indent:0;text-align:start;text-decoration-line:none;text-decoration-style:solid;text-decoration-color:#000;text-transform:none;block-progression:tb;isolation:auto;mix-blend-mode:normal" d="M18.492 1023.856a.5.5 0 00-.492.505v1a.5.5 0 101 0v-1a.5.5 0 00-.508-.506zm0 20a.5.5 0 00-.492.505v1a.5.5 0 101 0v-1a.5.5 0 00-.508-.506zM28 1034.36a.5.5 0 100 1h1a.5.5 0 100-1h-1z" color="#000" font-family="sans-serif" font-weight="400" overflow="visible"/><path fill="#406b95" d="M14 1043.523a.5.5 0 01-.5.5.5.5 0 01-.5-.5.5.5 0 01.5-.5.5.5 0 01.5.5z"/><path fill="#ee535c" fill-rule="evenodd" style="line-height:normal;text-indent:0;text-align:start;text-decoration-line:none;text-decoration-style:solid;text-decoration-color:#000;text-transform:none;block-progression:tb;isolation:auto;mix-blend-mode:normal" d="M8.008 1034.361a.5.5 0 100 1h1a.5.5 0 100-1h-1z" color="#000" font-family="sans-serif" font-weight="400" overflow="visible"/><path fill="#406b95" d="M24 1043.523a.5.5 0 01-.5.5.5.5 0 01-.5-.5.5.5 0 01.5-.5.5.5 0 01.5.5zm3.66-3.66a.5.5 0 01-.5.5.5.5 0 01-.5-.5.5.5 0 01.5-.5.5.5 0 01.5.5zm0-10a.5.5 0 01-.5.5.5.5 0 01-.5-.5.5.5 0 01.5-.5.5.5 0 01.5.5zm-3.66-3.661a.5.5 0 01-.5.5.5.5 0 01-.5-.5.5.5 0 01.5-.5.5.5 0 01.5.5zm-10 0a.5.5 0 01-.5.5.5.5 0 01-.5-.5.5.5 0 01.5-.5.5.5 0 01.5.5zm-3.66 3.66a.5.5 0 01-.5.5.5.5 0 01-.5-.5.5.5 0 01.5-.5.5.5 0 01.5.5z"/><circle cx="18.5" cy="1034.862" r="1" fill="#ee535c" stroke="#0c5286" stroke-dashoffset="3.4" stroke-linejoin="round"/><path fill="#406b95" d="M9.34 1039.862a.5.5 0 00.5.5.5.5 0 00.5-.5.5.5 0 00-.5-.5.5.5 0 00-.5.5z"/></g></svg>