<svg xmlns="http://www.w3.org/2000/svg" data-name="Layer 1" viewBox="0 0 32 32"><path fill="#37b678" d="M30.8973,13.39026c-2.51462,2.5774-7.814,8.0092-12.31339,12.61023l-1.47551-1.50176L8.29672,15.45646,6.83161,13.95477,19.1346,1.34455a.792.792,0,0,1,.16629-.15978l.04154-.04258a1.75061,1.75061,0,0,1,2.50428,0,1.88856,1.88856,0,0,1,.21817.20236l8.822,9.04227A2.15887,2.15887,0,0,1,30.8973,13.39026Z"/><path fill="#058b48" d="M19.13458,2.34454a.79168.79168,0,0,1,.16632-.15979l.0415-.0426a1.75071,1.75071,0,0,1,2.50433,0,1.89561,1.89561,0,0,1,.21814.20239l8.822,9.04224a2.14333,2.14333,0,0,1,.54773,1.0097,2.16121,2.16121,0,0,0-.54773-2.0097l-8.822-9.04224a1.89561,1.89561,0,0,0-.21814-.20239,1.75071,1.75071,0,0,0-2.50433,0l-.0415.0426a.79168.79168,0,0,0-.16632.15979L6.8316,13.95477l.48779.5Z"/><path fill="#00a653" d="M8.29674,15.45648l11.638-11.92856.00394-.00164a1.46965,1.46965,0,0,0,1.31522-.00753l.0005-.00148,7.492,7.679a1.59177,1.59177,0,0,0,0,1.37391l-11.638,11.92856L28.74845,12.57106a1.59909,1.59909,0,0,1,0-1.37065,1.59909,1.59909,0,0,0,0,1.37065"/><ellipse cx="18.28" cy="14.008" fill="#fdd402" rx="2.598" ry="2.663"/><path fill="#058b48" d="M19.93475,4.52789l.00391-.00165a1.46958,1.46958,0,0,0,1.31525-.00751l.00049-.00146,7.35541,7.53906a1.58369,1.58369,0,0,1,.13654-.86l-7.49194-7.679-.00049.00146a1.46958,1.46958,0,0,1-1.31525.00751l-.00391.00165L8.29675,15.45648l1.13135-.15961Z"/><rect width="31" height="18" x=".5" y="13.5" fill="#b28966" rx="2" ry="2"/><path fill="#8b6847" d="M29.5 13.5H2.5a2 2 0 0 0-2 2v1a2 2 0 0 1 2-2h27a2 2 0 0 1 2 2v-1A2 2 0 0 0 29.5 13.5zM21.5 19.5h10a0 0 0 0 1 0 0v6a0 0 0 0 1 0 0h-10a3 3 0 0 1-3-3v0A3 3 0 0 1 21.5 19.5z"/><path fill="#74563a" d="M21.5,26.5h10v-1h-10A2.99419,2.99419,0,0,1,18.55042,23,2.955,2.955,0,0,0,21.5,26.5Z"/><circle cx="21.5" cy="22.5" r="1" fill="#fff"/><circle cx="9.5" cy="22.5" r="7" fill="#f7991d"/><circle cx="9.5" cy="22.5" r="6" fill="#fdd402"/><path fill="#00a653" d="M9.707 20.00049a.49971.49971 0 0 1-.5-.5v-1a.5.5 0 0 1 1 0v1A.49971.49971 0 0 1 9.707 20.00049zM9.707 27.00049a.49971.49971 0 0 1-.5-.5v-1a.5.5 0 0 1 1 0v1A.49971.49971 0 0 1 9.707 27.00049z"/><path fill="#00a653" d="M9.707,26.00049a2.00229,2.00229,0,0,1-2-2,.5.5,0,0,1,1,0,1,1,0,1,0,1-1,2,2,0,1,1,2-2,.5.5,0,0,1-1,0,1,1,0,1,0-1,1,2,2,0,0,1,0,4Z"/></svg>